<svg xmlns="http://www.w3.org/2000/svg" viewBox="0 0 640 640" fill="#fff"><!--!Font Awesome Free 7.0.1 by @fontawesome - https://fontawesome.com License - https://fontawesome.com/license/free Copyright 2025 Fonticons, Inc.--><path d="M64 136C64 149.3 74.7 160 88 160L112 160L112 240L88 240C74.7 240 64 250.7 64 264C64 277.3 74.7 288 88 288L184 288C197.3 288 208 277.3 208 264C208 250.7 197.3 240 184 240L160 240L160 136C160 122.7 149.3 112 136 112L88 112C74.7 112 64 122.8 64 136zM256 160C256 173.3 266.7 184 280 184L552 184C565.3 184 576 173.3 576 160C576 146.7 565.3 136 552 136L280 136C266.7 136 256 146.7 256 160zM256 320C256 333.3 266.7 344 280 344L552 344C565.3 344 576 333.3 576 320C576 306.7 565.3 296 552 296L280 296C266.7 296 256 306.7 256 320zM256 480C256 493.3 266.7 504 280 504L552 504C565.3 504 576 493.3 576 480C576 466.7 565.3 456 552 456L280 456C266.7 456 256 466.7 256 480zM134 352C119.7 352 105.8 356.6 94.4 365.2L73.6 380.8C63 388.8 60.8 403.8 68.8 414.4C76.8 425 91.8 427.2 102.4 419.2L123.2 403.6C126.3 401.3 130.1 400 134 400L138.9 400C146.1 400 152 405.9 152 413.1C152 417.3 150 421.2 146.6 423.7L76.1 475C68.5 480.5 64 489.3 64 498.7C64 514.9 77.1 528 93.3 528L184 528C197.3 528 208 517.3 208 504C208 490.7 197.3 480 184 480L150.8 480L174.8 462.5C190.6 451 200 432.6 200 413.1C200 379.4 172.6 352 138.9 352L134 352z"/></svg>